<svg width="156" height="160" viewBox="0 0 156 160" fill="none" xmlns="http://www.w3.org/2000/svg">
<path d="M78 158.5C35.1979 158.5 0.5 123.802 0.5 81C0.5 38.1979 35.1979 3.5 78 3.5C120.802 3.5 155.5 38.1979 155.5 81C155.5 123.802 120.802 158.5 78 158.5Z" fill="url(#paint0_radial_34_460)"/>
<path d="M78 158.5C35.1979 158.5 0.5 123.802 0.5 81C0.5 38.1979 35.1979 3.5 78 3.5C120.802 3.5 155.5 38.1979 155.5 81C155.5 123.802 120.802 158.5 78 158.5Z" stroke="url(#paint1_radial_34_460)"/>
<path d="M78 158.5C35.1979 158.5 0.5 123.802 0.5 81C0.5 38.1979 35.1979 3.5 78 3.5C120.802 3.5 155.5 38.1979 155.5 81C155.5 123.802 120.802 158.5 78 158.5Z" stroke="url(#paint2_radial_34_460)"/>
<path d="M78 158.5C35.1979 158.5 0.5 123.802 0.5 81C0.5 38.1979 35.1979 3.5 78 3.5C120.802 3.5 155.5 38.1979 155.5 81C155.5 123.802 120.802 158.5 78 158.5Z" stroke="url(#paint3_radial_34_460)"/>
<mask id="mask0_34_460" style="mask-type:alpha" maskUnits="userSpaceOnUse" x="0" y="4" width="156" height="156">
<path d="M78 151.337C39.6259 151.337 8.07161 120.214 8.07161 81.9999C8.07161 43.7855 39.6259 12.6624 78 12.6624C116.374 12.6624 147.928 43.7855 147.928 81.9999C147.928 120.214 116.374 151.337 78 151.337Z" fill="url(#paint4_radial_34_460)"/>
<path d="M78 151.337C39.6259 151.337 8.07161 120.214 8.07161 81.9999C8.07161 43.7855 39.6259 12.6624 78 12.6624C116.374 12.6624 147.928 43.7855 147.928 81.9999C147.928 120.214 116.374 151.337 78 151.337Z" stroke="url(#paint5_radial_34_460)" stroke-width="16.1432"/>
<path d="M78 151.337C39.6259 151.337 8.07161 120.214 8.07161 81.9999C8.07161 43.7855 39.6259 12.6624 78 12.6624C116.374 12.6624 147.928 43.7855 147.928 81.9999C147.928 120.214 116.374 151.337 78 151.337Z" stroke="url(#paint6_radial_34_460)" stroke-width="16.1432"/>
<path d="M78 151.337C39.6259 151.337 8.07161 120.214 8.07161 81.9999C8.07161 43.7855 39.6259 12.6624 78 12.6624C116.374 12.6624 147.928 43.7855 147.928 81.9999C147.928 120.214 116.374 151.337 78 151.337Z" stroke="url(#paint7_radial_34_460)" stroke-width="16.1432"/>
</mask>
<g mask="url(#mask0_34_460)">
<g style="mix-blend-mode:overlay" filter="url(#filter0_f_34_460)">
<path d="M-0.808594 109.391C-5.83937 109.391 -10.1457 108.394 -13.7276 106.402C-17.3095 104.39 -20.0563 101.593 -21.968 98.011C-23.8797 94.4089 -24.8356 90.2334 -24.8356 85.4843C-24.8356 80.7353 -23.8797 76.5698 -21.968 72.9879C-20.0563 69.3858 -17.3095 66.5887 -13.7276 64.5965C-10.1457 62.5842 -5.83937 61.5781 -0.808594 61.5781C3.73923 61.5781 7.6733 62.4031 10.9936 64.0532C14.334 65.6832 16.9199 67.9974 18.7511 70.9957C20.5823 73.9739 21.5079 77.4753 21.5281 81.5H6.07351C5.85215 79.0651 5.14785 77.2137 3.96058 75.946C2.79344 74.6581 1.28421 74.0142 -0.567117 74.0142C-2.01598 74.0142 -3.28373 74.4367 -4.37038 75.2819C-5.45703 76.107 -6.3022 77.3647 -6.90589 79.055C-7.50959 80.7252 -7.81143 82.8281 -7.81143 85.3636C-7.81143 87.8991 -7.50959 90.012 -6.90589 91.7024C-6.3022 93.3726 -5.45703 94.6303 -4.37038 95.4755C-3.28373 96.3005 -2.01598 96.713 -0.567117 96.713C0.660393 96.713 1.74704 96.4313 2.69283 95.8679C3.63861 95.2843 4.40329 94.4391 4.98686 93.3323C5.59056 92.2054 5.95277 90.8371 6.07351 89.2272H21.5281C21.4677 93.3122 20.532 96.874 18.7209 99.9126C16.9098 102.931 14.3441 105.265 11.0238 106.915C7.7236 108.566 3.77947 109.391 -0.808594 109.391ZM45.0645 46.7272V108.545H28.4026V46.7272H45.0645ZM75.7699 109.391C70.8196 109.391 66.5535 108.445 62.9716 106.553C59.4098 104.642 56.663 101.905 54.7312 98.343C52.8195 94.7611 51.8636 90.4749 51.8636 85.4843C51.8636 80.695 52.8295 76.5094 54.7614 72.9275C56.6932 69.3456 59.4199 66.5585 62.9414 64.5664C66.463 62.5742 70.6184 61.5781 75.4077 61.5781C78.9091 61.5781 82.0785 62.1214 84.9158 63.2081C87.7532 64.2947 90.178 65.8744 92.1903 67.947C94.2027 69.9996 95.7521 72.4949 96.8388 75.4328C97.9254 78.3708 98.4688 81.6811 98.4688 85.3636V89.2272H57.0554V80.0511H83.1349C83.1148 78.723 82.7727 77.5558 82.1087 76.5497C81.4647 75.5234 80.5894 74.7285 79.4826 74.1651C78.396 73.5815 77.1584 73.2897 75.7699 73.2897C74.4216 73.2897 73.1841 73.5815 72.0572 74.1651C70.9303 74.7285 70.0247 75.5133 69.3406 76.5195C68.6765 77.5256 68.3243 78.7028 68.2841 80.0511V89.9517C68.2841 91.4408 68.596 92.7689 69.2198 93.936C69.8436 95.1032 70.7391 96.0188 71.9062 96.6828C73.0734 97.3469 74.482 97.6789 76.1321 97.6789C77.2791 97.6789 78.3255 97.5179 79.2713 97.196C80.2372 96.874 81.0623 96.4112 81.7465 95.8075C82.4306 95.1837 82.9337 94.4391 83.2557 93.5738H98.4688C97.9456 96.7935 96.708 99.5906 94.756 101.965C92.8041 104.32 90.2183 106.151 86.9986 107.459C83.799 108.747 80.0561 109.391 75.7699 109.391ZM118.187 109.27C115.229 109.27 112.613 108.787 110.339 107.821C108.085 106.835 106.314 105.346 105.026 103.354C103.738 101.361 103.095 98.8259 103.095 95.7471C103.095 93.2116 103.527 91.0484 104.392 89.2574C105.258 87.4463 106.465 85.9673 108.015 84.8203C109.564 83.6733 111.365 82.7979 113.418 82.1942C115.49 81.5905 117.724 81.1981 120.119 81.017C122.715 80.8158 124.797 80.5743 126.367 80.2926C127.957 79.9907 129.104 79.5782 129.808 79.055C130.512 78.5117 130.864 77.7973 130.864 76.9119V76.7911C130.864 75.5838 130.402 74.6581 129.476 74.0142C128.55 73.3702 127.363 73.0482 125.914 73.0482C124.324 73.0482 123.026 73.4004 122.02 74.1047C121.034 74.7889 120.441 75.8454 120.239 77.2741H104.906C105.107 74.4569 106.002 71.861 107.592 69.4865C109.202 67.0918 111.546 65.1801 114.625 63.7514C117.704 62.3025 121.547 61.5781 126.156 61.5781C129.476 61.5781 132.454 61.9705 135.09 62.7553C137.726 63.52 139.97 64.5965 141.821 65.985C143.673 67.3534 145.081 68.9633 146.047 70.8146C147.033 72.6458 147.526 74.638 147.526 76.7911V108.545H131.951V102.026H131.589C130.663 103.756 129.536 105.155 128.208 106.221C126.9 107.288 125.401 108.062 123.711 108.545C122.04 109.028 120.199 109.27 118.187 109.27ZM123.62 98.7656C124.888 98.7656 126.075 98.504 127.182 97.9808C128.309 97.4576 129.224 96.703 129.929 95.7169C130.633 94.7309 130.985 93.5336 130.985 92.125V88.2613C130.542 88.4424 130.07 88.6135 129.566 88.7745C129.084 88.9354 128.56 89.0864 127.997 89.2272C127.454 89.3681 126.87 89.4989 126.246 89.6196C125.642 89.7404 125.009 89.851 124.345 89.9517C123.057 90.1529 122 90.4849 121.175 90.9478C120.37 91.3905 119.767 91.9438 119.364 92.6079C118.982 93.2518 118.791 93.9763 118.791 94.7812C118.791 96.0691 119.243 97.0551 120.149 97.7393C121.054 98.4235 122.211 98.7656 123.62 98.7656ZM155.488 108.545V62.1818H171.667V70.9957H172.15C172.995 67.7358 174.333 65.3512 176.164 63.8419C178.015 62.3327 180.179 61.5781 182.654 61.5781C183.378 61.5781 184.093 61.6385 184.797 61.7592C185.521 61.8598 186.216 62.0107 186.88 62.212V76.4289C186.055 76.1472 185.038 75.9359 183.831 75.7951C182.624 75.6542 181.587 75.5838 180.722 75.5838C179.092 75.5838 177.623 75.956 176.315 76.7006C175.027 77.425 174.011 78.4513 173.266 79.7794C172.522 81.0874 172.15 82.6268 172.15 84.3977V108.545H155.488Z" fill="white"/>
</g>
</g>
<g filter="url(#filter1_f_34_460)">
<ellipse cx="77.5" cy="45" rx="49.5" ry="32" fill="url(#paint8_radial_34_460)" fill-opacity="0.2"/>
</g>
<defs>
<filter id="filter0_f_34_460" x="-34.8354" y="36.7272" width="231.715" height="82.6633" filterUnits="userSpaceOnUse" color-interpolation-filters="sRGB">
<feFlood flood-opacity="0" result="BackgroundImageFix"/>
<feBlend mode="normal" in="SourceGraphic" in2="BackgroundImageFix" result="shape"/>
<feGaussianBlur stdDeviation="5" result="effect1_foregroundBlur_34_460"/>
</filter>
<filter id="filter1_f_34_460" x="15.0455" y="0.0454655" width="124.909" height="89.9091" filterUnits="userSpaceOnUse" color-interpolation-filters="sRGB">
<feFlood flood-opacity="0" result="BackgroundImageFix"/>
<feBlend mode="normal" in="SourceGraphic" in2="BackgroundImageFix" result="shape"/>
<feGaussianBlur stdDeviation="6.47727" result="effect1_foregroundBlur_34_460"/>
</filter>
<radialGradient id="paint0_radial_34_460" cx="0" cy="0" r="1" gradientUnits="userSpaceOnUse" gradientTransform="translate(13.0495 3) rotate(48.0195) scale(233.227 169.41)">
<stop stop-color="white" stop-opacity="0.36"/>
<stop offset="1" stop-color="white" stop-opacity="0"/>
</radialGradient>
<radialGradient id="paint1_radial_34_460" cx="0" cy="0" r="1" gradientUnits="userSpaceOnUse" gradientTransform="translate(-83.0633 18.9592) rotate(35.1112) scale(179.85 106.243)">
<stop stop-color="white"/>
<stop offset="1" stop-color="white" stop-opacity="0.06"/>
</radialGradient>
<radialGradient id="paint2_radial_34_460" cx="0" cy="0" r="1" gradientUnits="userSpaceOnUse" gradientTransform="translate(201.671 107.404) rotate(161.34) scale(130.378 88.3053)">
<stop stop-color="#8470FF"/>
<stop offset="1" stop-color="#865CFF" stop-opacity="0"/>
</radialGradient>
<radialGradient id="paint3_radial_34_460" cx="0" cy="0" r="1" gradientUnits="userSpaceOnUse" gradientTransform="translate(79.6984 -32.6533) rotate(47.2897) scale(87.1768 62.6469)">
<stop/>
<stop offset="1" stop-color="white" stop-opacity="0"/>
</radialGradient>
<radialGradient id="paint4_radial_34_460" cx="0" cy="0" r="1" gradientUnits="userSpaceOnUse" gradientTransform="translate(13.0495 4.59082) rotate(47.8028) scale(232.252 168.832)">
<stop stop-color="white" stop-opacity="0.36"/>
<stop offset="1" stop-color="white" stop-opacity="0"/>
</radialGradient>
<radialGradient id="paint5_radial_34_460" cx="0" cy="0" r="1" gradientUnits="userSpaceOnUse" gradientTransform="translate(-83.0633 20.4291) rotate(34.9065) scale(179.401 105.703)">
<stop stop-color="white"/>
<stop offset="1" stop-color="white" stop-opacity="0.06"/>
</radialGradient>
<radialGradient id="paint6_radial_34_460" cx="0" cy="0" r="1" gradientUnits="userSpaceOnUse" gradientTransform="translate(174.439 77.6994) rotate(143.25) scale(120.177 80.9328)">
<stop stop-color="#F9B016"/>
<stop offset="1" stop-color="#F9B016" stop-opacity="0"/>
</radialGradient>
<radialGradient id="paint7_radial_34_460" cx="0" cy="0" r="1" gradientUnits="userSpaceOnUse" gradientTransform="translate(79.6984 -30.7924) rotate(47.0725) scale(86.8209 62.4272)">
<stop/>
<stop offset="1" stop-color="white" stop-opacity="0"/>
</radialGradient>
<radialGradient id="paint8_radial_34_460" cx="0" cy="0" r="1" gradientUnits="userSpaceOnUse" gradientTransform="translate(77.5 13) rotate(90) scale(47.4245 73.3687)">
<stop stop-color="white"/>
<stop offset="1" stop-color="white" stop-opacity="0"/>
</radialGradient>
</defs>
</svg>
